<svg aria-hidden="true" style="position:absolute;width:0;height:0;overflow:hidden" xmlns="http://www.w3.org/2000/svg">
  <defs>
    <symbol id="mail" viewBox="0 0 43 32">
      <path d="M38.67 0H4a4 4 0 0 0-4 4v24a4 4 0 0 0 4 4h34.67a4 4 0 0 0 4-4V4a4 4 0 0 0-4-4zm0 2.67c.2 0 .38.04.54.1h-.01L21.33 18.24 3.47 2.77c.15-.06.33-.1.52-.1h34.68zm0 26.66H4c-.74 0-1.33-.6-1.33-1.33V5.6l17.78 15.41a1.33 1.33 0 0 0 1.77 0L40 5.6V28c0 .74-.6 1.33-1.33 1.33z"/>
    </symbol>
    <symbol id="phone" viewBox="0 0 20 32">
      <path d="M17 0H3a3 3 0 0 0-3 3v26a3 3 0 0 0 3 3h14a3 3 0 0 0 3-3V3a3 3 0 0 0-3-3zM3 2h14c.56 0 1 .44 1 1v21H2V3c0-.56.44-1 1-1zm14 28H3a1 1 0 0 1-1-1v-3h16v3a1 1 0 0 1-1 1z"/>
      <path d="M4.7 27.48c.4.36.4.96 0 1.32a1.05 1.05 0 0 1-1.4 0 .9.9 0 0 1 0-1.32c.4-.36 1-.36 1.4 0z"/>
    </symbol>
    <symbol id="antenna" viewBox="0 0 32 32">
      <path fill="#212121" style="fill:var(--color1, #212121)" d="m30.77 22.1-8.44-8.5.94-4.62c.22.09.48.14.75.14h.04a2.16 2.16 0 1 0-2.03-1.42V7.7l-4.97.6L8.97.16A.53.53 0 0 0 8.6 0a.54.54 0 0 0-.38.16l-1.5 1.5a.53.53 0 0 0 0 .75l.8.83a14.9 14.9 0 0 0 2.52 17.66c.05.04.1.08.15.1-.03.16-.05.35-.05.55v6.18h-6.4a2.67 2.67 0 0 0-2.67 2.67v1.07c0 .3.24.53.54.53h24.53c.3 0 .53-.24.53-.53V30.4c0-1.47-1.2-2.67-2.66-2.67h-6.4V25a14.78 14.78 0 0 0 10.17-1.5l-.08.04.81.82c.1.1.24.16.38.16s.27-.06.37-.15l1.52-1.5a.53.53 0 0 0 0-.76zM23.28 6.23c.2-.19.46-.3.75-.3a1.07 1.07 0 0 1 0 2.13 1.07 1.07 0 0 1-.75-1.83zm-1.26 3.5-.6 2.95-1.17-1.18 1.78-1.76zm-.6-.9-1.92 1.91L18 9.25l3.4-.41zM24 28.8c.89 0 1.6.72 1.6 1.6v.53H2.14v-.53c0-.88.71-1.6 1.6-1.6H24zm-7.46-2.13v1.06H11.2v-1.06h5.34zM11.2 25.6v-4.05c0-1.3 1.2-2.35 2.67-2.35s2.67 1.05 2.67 2.35v4.05H11.2zm6.4-1.7v-2.35c0-1.89-1.67-3.42-3.73-3.42h-.06a3.8 3.8 0 0 0-3.21 1.78v.01A13.82 13.82 0 0 1 8.34 3.96l-.04.07 18.6 18.71a13.63 13.63 0 0 1-9.4 1.15l.1.02zm11.3-.68L7.83 2.04l.75-.75 7.94 7.98 13.12 13.2-.76.75z"/>
      <path fill="#2196f3" style="fill:var(--color2, #2196f3)" d="M13.88 20.27h-.01a1.6 1.6 0 0 0 0 3.2 1.6 1.6 0 0 0 0-3.2zm.37 1.98c-.1.1-.23.15-.38.15a.53.53 0 0 1 0-1.07.53.53 0 0 1 .38.91z"/>
    </symbol>
    <symbol id="astronaut" viewBox="0 0 32 32">
      <path fill="#2196f3" style="fill:var(--color2, #2196f3)" d="M31.97 4.52a.54.54 0 0 0-.42-.36l-1.92-.28-.85-1.73c-.18-.36-.78-.36-.96 0l-.85 1.73-1.91.28a.53.53 0 0 0-.3.91l1.38 1.35-.32 1.9c-.04.2.04.4.2.52.17.12.4.14.57.04l1.71-.9 1.7.9c.08.04.17.07.26.07a.53.53 0 0 0 .52-.63l-.32-1.9 1.38-1.35a.53.53 0 0 0 .13-.55zm-2.46 1.33a.53.53 0 0 0-.15.47l.19 1.12-1-.53a.52.52 0 0 0-.5 0l-1 .53.2-1.12v-.09a.53.53 0 0 0-.16-.38l-.81-.79 1.12-.16a.53.53 0 0 0 .4-.3l.5-1 .5 1c.08.16.23.27.4.3l1.12.16-.8.8zm-3.38 14.67h-1.06v1.07h1.06v-1.07zm0 2.14h-1.06v1.06h1.06v-1.06zm1.07-1.07h-1.07v1.07h1.07v-1.07zm-2.13 0H24v1.07h1.07v-1.07zm-2.67 4.8h-1.07v1.07h1.07v-1.07zm0 2.13h-1.07v1.07h1.07v-1.07zm1.07-1.06H22.4v1.06h1.07v-1.06zm-2.14 0h-1.06v1.06h1.06v-1.06zM16 24.26h-1.07v1.06H16v-1.06zm0 2.13h-1.07v1.07H16v-1.07zm1.07-1.07H16v1.07h1.07v-1.07zm-2.14 0h-1.06v1.07h1.06v-1.07zM5.87 6.12H4.8V7.2h1.07V6.12zm0 2.14H4.8v1.06h1.07V8.26zm1.06-1.07H5.87v1.07h1.06V7.19zm-2.13 0H3.73v1.07H4.8V7.19z"/>
      <path fill="#212121" style="fill:var(--color1, #212121)" d="M24.71 14.16c-.28-.38-.7-.64-1.17-.7h-.01a1.77 1.77 0 0 0-1.34.35l-1.26.96-1.9 1.42-1.35-.55A6.94 6.94 0 0 0 14.83 2.4a6.95 6.95 0 0 0-6.96 6.93c0 1.39.41 2.68 1.12 3.76l-2.77-.02H6.2a.51.51 0 0 0-.16.04h-.03l-.02.02-3.24 1.6-1.9.9a1.78 1.78 0 0 0-.66 2.34c.23.42.6.74 1.05.88h.01a1.77 1.77 0 0 0 1.39-.13l1.38-.73 2.26-1.17 1.36-.01L2.2 22.2.86 23.55c-.3.3-.5.71-.5 1.17a1.67 1.67 0 0 0 2.85 1.18l1.32-1.3 1.74-1.3.9.9-3.1 3.08a1.65 1.65 0 0 0 1.17 2.84c.43 0 .86-.16 1.19-.48l4.49-4.48.02-.01 5.16-5.66 3.47.5a.47.47 0 0 0 .27-.04l.05-.02.05-.03 3.22-2.13.03-.03.04-.03 1.27-1.19a1.77 1.77 0 0 0 .2-2.36h.01zM2.14 17.77a.7.7 0 0 1-.56.05.72.72 0 0 1-.21-1.26l1.31-.63.32.92.13.4-1 .52zm3.5-1.83-1.55.8-.26-.74-.18-.54 2.03-1-.04 1.48zm15.1-6.62a5.8 5.8 0 0 1-.6 2.56l-4.18-1.9a1.86 1.86 0 0 0-.79-1.38l1.46-4.87a5.88 5.88 0 0 1 4.1 5.6zm-11.8 0a5.89 5.89 0 0 1 6.65-5.81l-1.44 4.75h-.05c-1.04 0-1.87.83-1.88 1.86 0 1.03.84 1.87 1.88 1.87.7 0 1.3-.38 1.62-.94l3.86 1.75A5.9 5.9 0 0 1 8.94 9.32zm5.96.8a.8.8 0 0 1-1.61 0c0-.44.36-.8.81-.8s.8.36.8.8zM2.46 25.15a.6.6 0 0 1-.85 0 .6.6 0 0 1 0-.85l.96-.96.85.85-.96.96zm3.22 3.73a.6.6 0 0 1-.86 0 .6.6 0 0 1 0-.84l.97-.96.85.85-.96.95zm3.48-3.47-1.77 1.76-.85-.85 1.77-1.75a.53.53 0 0 0 .09-.14l.02-.04c.02-.04.02-.08.03-.13l.01-.07-.02-.1c0-.04 0-.07-.02-.1a.54.54 0 0 0-.09-.14l-.02-.04-1.61-1.6-.06-.04a.5.5 0 0 0-.08-.05.53.53 0 0 0-.1-.04.5.5 0 0 0-.1-.02h-.03a.6.6 0 0 0-.07 0l-.1.03a.5.5 0 0 0-.1.04l-.06.03-1.77 1.33-.9-.9 2.4-2.38 4.36 4.28-.93.92zm6.82-7.02h-.07l-.1.01a.48.48 0 0 0-.18.07.5.5 0 0 0-.08.06l-.04.03-4.7 5.15-4.33-4.26 2.84-2.82a.53.53 0 0 0-.38-.9H6.72l.03-1.6 3.1.03a6.93 6.93 0 0 0 4.98 2.1c.44 0 .86-.05 1.28-.12l.13.08 2.4.96.16.76.18.88-3-.42zm4.04.18-.31-1.56 1.44-1.08.95 1.26-2.08 1.38zm3.75-2.83-.83.79-.94-1.24.84-.64a.73.73 0 0 1 .54-.14.72.72 0 0 1 .4 1.23z"/>
      <path fill="#212121" style="fill:var(--color1, #212121)" d="m13.6 18.54-2.14-2.13a.53.53 0 0 0-.75 0l-2.15 2.13c-.1.1-.15.23-.15.38s.06.28.15.38l2.15 2.13a.53.53 0 0 0 .75 0l2.14-2.13a.53.53 0 0 0 0-.76zm-2.52 1.76L9.7 18.92l1.38-1.38 1.39 1.38-1.39 1.38zm6.08-15.23-.25 1.04c.07.01 1.73.45 1.73 2.15h1.07c0-2.02-1.66-2.97-2.55-3.19zm2.55 4.25h-1.07v1.07h1.07V9.32z"/>
    </symbol>
    <symbol id="clock" viewBox="0 0 32 32">
      <path fill="#212121" style="fill:var(--color1, #212121)" d="M31.3 15.3a15.3 15.3 0 1 0-20.07 14.55l.1.03a.67.67 0 0 0 .53-.07c.14-.07.24-.2.29-.35L16 17.21a1.91 1.91 0 1 0-.85-3.63h.01l-5.1-5.11a.64.64 0 0 0-.9.9l5.1 5.11a1.87 1.87 0 0 0 .53 2.3v.01l-3.68 11.67a14.04 14.04 0 1 1 10.66-.38l-.09.03-.4-1.87a.64.64 0 0 0-1.05-.34l-3.83 3.42a.64.64 0 0 0 .23 1.08l4.9 1.57c.05.02.12.03.2.03a.64.64 0 0 0 .62-.77l-.4-1.84a15.29 15.29 0 0 0 9.33-14.06v-.03zM16 14.66a.64.64 0 0 1 0 1.28.64.64 0 0 1 0-1.28zm2.1 14.87 2.18-1.95.6 2.84-2.79-.9z"/>
      <path fill="#2196f3" style="fill:var(--color2, #2196f3)" d="M15.35 3.19v1.27a.64.64 0 0 0 1.28 0V3.19a.64.64 0 1 0-1.28 0zM3.88 14.66a.64.64 0 0 0 0 1.28h1.27a.64.64 0 0 0 0-1.28H3.88zm24.23 1.28a.64.64 0 0 0 0-1.28h-1.28a.64.64 0 0 0 0 1.28h1.28z"/>
    </symbol>
    <symbol id="diagram" viewBox="0 0 32 32">
      <path fill="#2196f3" style="fill:var(--color2, #2196f3)" d="M14.93 14.96h1.06v4.8h-1.06v-4.8zm4.26 2.14h1.07v2.66h-1.07V17.1zm-8.53 1.6h1.07v1.06h-1.07V18.7zm-3.2-.54h1.07v1.6H7.46v-1.6z"/>
      <path fill="#212121" style="fill:var(--color1, #212121)" d="M1.6 28.3h25.58c.89 0 1.6-.73 1.6-1.6v-2.14c0-.88-.71-1.6-1.6-1.6h-.53V9.66l3.03-2.86a1.6 1.6 0 1 0-.74-.75v-.01L26.64 8.2V6.97c0-.88-.71-1.6-1.6-1.6H3.73c-.88 0-1.6.72-1.6 1.6v16H1.6c-.88 0-1.6.7-1.6 1.59v2.13c0 .88.72 1.6 1.6 1.6zM30.38 4.83a.53.53 0 0 1 0 1.06.53.53 0 0 1 0-1.06zM3.2 6.97c0-.3.24-.53.53-.53h21.32c.3 0 .54.23.54.53V9.2l-1.07 1.01V8.04c0-.3-.24-.54-.53-.54H4.79c-.29 0-.53.24-.53.53v13.33c0 .3.24.54.54.54h19.19c.3 0 .53-.24.53-.54V11.7l1.07-1.01v12.28H3.19v-16zM8 13.9a1.6 1.6 0 1 0 1.1 2.75l1.86.93c.21.1.47.05.63-.13l3.94-4.43 3.87 2.9c.21.16.5.14.69-.03l3.36-3.2v8.14H5.33V8.57h18.12v2.66l-3.77 3.57-3.9-2.93a.53.53 0 0 0-.72.07l-4 4.5-1.49-.75c.02-.06.02-.12.02-.19 0-.88-.71-1.6-1.6-1.6zm.53 1.6a.53.53 0 0 1-1.07 0 .53.53 0 0 1 1.07 0zm3.2 8.53h5.33v.53c0 .3-.24.53-.54.53h-4.26a.53.53 0 0 1-.53-.53v-.53zm-10.66.53c0-.3.24-.53.53-.53h9.06v.53c0 .88.72 1.6 1.6 1.6h4.27c.88 0 1.6-.72 1.6-1.6v-.53h9.06c.3 0 .53.24.53.53v2.13c0 .3-.24.53-.53.53H1.6a.53.53 0 0 1-.53-.53v-2.13z"/>
    </symbol>
    <symbol id="facebook" viewBox="0 0 32 32">
      <path d="M21.33 5.31h2.92V.22a36.48 36.48 0 0 0-4.1-.22h-.16c-4.2 0-7.1 2.65-7.1 7.52V12H8.26v5.69h4.65V32h5.7V17.69h4.45l.71-5.69H18.6V8.08c0-1.64.45-2.77 2.74-2.77z"/>
    </symbol>
    <symbol id="group" viewBox="0 0 28 32">
      <path d="m4.08 0 4.78 4.52H0v21.9h23.15v-8.37l4.76 4.51V0H4.08zm18.86 17.52L9.4 4.7h13.53v12.8zm-4.2 5.7H3.66V8.48h1.07v13.74h14.01v1zM7.22 29.35l-.55 1.14-.56-1.15h-.47l.82 1.53v.9h.42v-.9l.8-1.52h-.46zm.7 2.41.2-.56h.94l.2.57h.43l-.91-2.42H8.4l-.91 2.41h.43zm.67-1.9.35 1h-.7l.35-1zm2.22.94a.54.54 0 0 0-.1.3v.01c0 .2.08.37.22.5s.34.19.57.19a1 1 0 0 0 .62-.2l.14.16h.47l-.36-.42c.14-.19.21-.43.21-.73h-.35c0 .16-.04.31-.1.44l-.47-.55.16-.12c.1-.07.19-.15.25-.25a.53.53 0 0 0 .08-.27v-.02a.5.5 0 0 0-.17-.37.6.6 0 0 0-.4-.16h-.03c-.2 0-.35.06-.47.17s-.17.26-.17.45c0 .07.02.15.06.24.03.08.1.18.2.3-.19.13-.3.24-.37.33zm1.09.54a.61.61 0 0 1-.38.14h-.02a.4.4 0 0 1-.27-.11.36.36 0 0 1-.11-.26v-.01c0-.13.07-.25.2-.35l.05-.04.53.63zm-.44-1.07c-.11-.14-.17-.26-.17-.35a.3.3 0 0 1 .07-.2c.05-.05.1-.09.18-.09h.01c.08 0 .14.03.18.07.05.05.07.1.07.16v.01a.3.3 0 0 1-.1.23l-.05.04-.19.13zm3.94 1.31a.88.88 0 0 0 .29-.6h-.42c-.02.17-.07.3-.16.37s-.2.1-.37.1c-.18 0-.32-.06-.41-.2s-.14-.33-.14-.6v-.21a1 1 0 0 1 .15-.59.5.5 0 0 1 .42-.2c.16 0 .28.04.36.12s.13.2.15.37h.42c-.03-.26-.12-.47-.28-.61s-.38-.22-.65-.22c-.2 0-.37.05-.53.14a.92.92 0 0 0-.34.4 1.4 1.4 0 0 0-.12.58v.26c0 .22.04.41.12.58s.2.3.34.4c.15.08.32.13.51.13.28 0 .5-.07.66-.22zm2.47-.34c.09-.18.13-.38.13-.62v-.16c0-.22-.05-.42-.13-.6a.93.93 0 0 0-.35-.4c-.16-.1-.33-.15-.53-.15s-.37.05-.52.15a.94.94 0 0 0-.36.41c-.07.18-.12.38-.12.6v.16c0 .23.04.44.13.61.08.18.2.32.35.42.16.1.33.14.53.14s.37-.05.52-.14c.15-.1.27-.24.35-.42zm-.45-1.37c.1.15.16.35.16.62v.13c0 .27-.05.48-.15.62a.5.5 0 0 1-.43.21h-.02a.5.5 0 0 1-.41-.21c-.1-.15-.16-.36-.16-.62v-.14c0-.26.06-.46.16-.6a.5.5 0 0 1 .4-.22H17a.5.5 0 0 1 .43.21z"/>
    </symbol>
    <symbol id="group1" viewBox="0 0 25 32">
      <path d="M10.53 1.8h-.75l-.74.01h-.06c-2.37.14-4.58.73-6.57 1.7l.1-.05-.26.13v13.63l.62-.22a20.55 20.55 0 0 1 6.7-1.17h.01v1.79c-.22 0-.44 0-.66.02h-.05c-1.4.08-2.7.29-3.97.62l.14-.04a19.4 19.4 0 0 0-4.66 1.84l.1-.06V2.53A17.9 17.9 0 0 1 5.14.6l.13-.03C6.62.22 8.17 0 9.77 0h.27a13.09 13.09 0 0 1 3.25.42L13.2.4v1.76c-.62-.15-1.37-.27-2.13-.32h-.05l-.04-.01-.45-.03zm3.1 1.8a19.41 19.41 0 0 0 6.09-.6l-.14.04a19.5 19.5 0 0 0 4.67-1.83l-.1.05v17.16a17.97 17.97 0 0 1-4.67 1.93l-.12.02c-1.36.37-2.91.58-4.51.58h-.12c-1.18 0-2.32-.14-3.4-.42l.09.02V3.28a12.73 12.73 0 0 0 2.21.33zm8.74.14-.63.2a20.54 20.54 0 0 1-6.9 1.18c-.4.01-.78 0-1.14-.02l-.5-.04v14.02l.43.04a16.55 16.55 0 0 0 5.4-.5l-.12.02c1.23-.3 2.29-.7 3.29-1.19l-.1.05.26-.13V3.74zM1.68 25.98a.92.92 0 0 0-.66-.28H.98c-.14 0-.28.03-.4.08H.6a.9.9 0 0 0-.5.5l-.01.01a1 1 0 0 0-.07.39V29c0 .17.02.33.09.48a.82.82 0 0 0 .55.48c.12.03.23.05.35.05a.98.98 0 0 0 .97-.98v-.27h-.61V29c0 .07-.01.13-.04.2v-.01a.38.38 0 0 1-.09.13.43.43 0 0 1-.25.1H.94a.3.3 0 0 1-.25-.13.55.55 0 0 1-.08-.3V26.8c0-.13.02-.24.08-.35a.31.31 0 0 1 .26-.15h.04c.11 0 .2.06.27.14.06.08.1.18.1.3V26.95h.6v-.24c0-.15-.02-.29-.07-.41a.95.95 0 0 0-.2-.32zm3.63-.03a1.05 1.05 0 0 0-1.06-.2.97.97 0 0 0-.56.52c-.06.15-.09.3-.09.46v2.24c0 .16.03.31.1.46.05.12.13.22.23.3.1.1.2.16.32.2a1.05 1.05 0 0 0 1.06-.2c.1-.08.18-.19.23-.3.06-.15.1-.3.09-.46V26.7c0-.16-.03-.3-.1-.44a1.02 1.02 0 0 0-.22-.32zm-.28 3.02V29a.4.4 0 0 1-.13.3.45.45 0 0 1-.57 0 .4.4 0 0 1-.12-.33V26.7a.4.4 0 0 1 .12-.3.45.45 0 0 1 .58 0 .4.4 0 0 1 .12.33v2.24zm5.04 1v-4.24H9.5l-.78 2.24-.78-2.24h-.58v4.24h.6v-2.58h.01l.6 1.82h.3l.6-1.82v2.58h.61zm3.44-3.94a.83.83 0 0 0-.34-.24 1.31 1.31 0 0 0-.42-.06h-.92v4.24h.6V28.3h.32c.19.01.37-.03.54-.11a.88.88 0 0 0 .33-.32 1 1 0 0 0 .14-.38c.02-.13.03-.28.03-.44v-.04c.01-.2-.01-.4-.06-.6a.9.9 0 0 0-.22-.4zm-.3 1.29c-.01.08-.03.16-.07.22a.34.34 0 0 1-.15.15.62.62 0 0 1-.26.05H12.43V26.3H12.77c.09 0 .17.02.25.05.05.04.1.1.13.16.04.07.05.15.06.23v.58h-.01zm3.16-1.6h-.5l-.92 4.25h.6l.18-.91h.82l.18.9h.6l-.96-4.23zm-.55 2.76.3-1.54.3 1.54h-.6zm4.46-.2h-.01l-.92-2.55h-.58v4.24h.6v-2.55h.02l.92 2.55h.57v-4.24h-.6v2.55zm3.69-2.55-.49 1.68h-.01l-.49-1.68h-.64l.83 2.45v1.79h.6v-1.8l.84-2.44h-.64zM0 31.17h.3v.81h.19v-.81h.29V31H0v.17zM2.45 31l-.39.98h.21l.09-.22h.39l.08.22h.22l-.4-.98h-.2zm-.03.6.13-.37.13.36h-.26zm2.45.02h.22v.13a.38.38 0 0 1-.23.08h-.01a.25.25 0 0 1-.2-.1.4.4 0 0 1-.07-.23v-.02c0-.22.1-.33.28-.33h.02c.1 0 .18.07.2.16l.2-.04c-.04-.2-.18-.29-.42-.29h-.01a.5.5 0 0 0-.33.13.48.48 0 0 0-.14.38v.02c0 .13.04.25.12.35.09.08.21.14.34.14h.05a.6.6 0 0 0 .4-.16v-.39h-.42v.17zM7.34 31h-.2v.98h.69v-.16h-.5V31zm2.09 0h-.2v.98h.2V31zm2.04.66-.4-.66h-.2v.98h.19v-.64l.4.64h.2V31h-.2v.66zm1.84-.11h.5v-.17h-.5v-.21h.53V31h-.73v.98h.75v-.16h-.55v-.27zm4.48-.16h-.39v-.4h-.2v1h.2v-.44h.4v.43h.19V31h-.2v.38zm1.86.16h.5v-.17h-.5v-.21h.53V31h-.73v.98h.75v-.16h-.55v-.27zm2.52 0c.17-.03.26-.12.26-.27a.23.23 0 0 0-.1-.22.56.56 0 0 0-.25-.06H21.62v.98h.2v-.4h.06l.1.01a.2.2 0 0 1 .07.08l.22.3h.23l-.12-.18a.7.7 0 0 0-.21-.24zm-.2-.14h-.15v-.24h.16a.52.52 0 0 1 .2.02c.03.02.04.06.04.1 0 .04-.02.08-.05.1a.54.54 0 0 1-.16.02h-.04zm2.1.14h.49v-.17h-.5v-.21h.54V31h-.73v.98h.75v-.16h-.55v-.27z"/>
    </symbol>
    <symbol id="group2" viewBox="0 0 34 32">
      <path d="M5.64 31.32h.04l.03.02.16.16c-.13.13-.28.23-.46.3-.19.07-.4.11-.62.11h-.05c-.21 0-.42-.03-.62-.1a1.3 1.3 0 0 1-.77-.72c-.07-.17-.1-.36-.1-.55v-.05c0-.39.16-.74.43-.98.14-.12.31-.22.5-.29.2-.06.42-.1.64-.1h.04c.2 0 .39.04.57.1h-.01c.16.06.31.14.44.25l-.14.17a.14.14 0 0 1-.03.03.1.1 0 0 1-.05.01c-.03 0-.05 0-.07-.02l-.07-.04-.1-.06a1.38 1.38 0 0 0-.56-.12H4.8c-.16 0-.31.03-.45.08-.13.05-.25.12-.36.21-.1.1-.18.21-.23.34-.06.13-.09.27-.09.43v.04c0 .15.03.3.1.44h-.01a.95.95 0 0 0 .58.55c.13.04.28.06.42.06l.26-.01a1 1 0 0 0 .55-.24.13.13 0 0 1 .07-.02zm4.8-.8v.01c0 .2-.04.39-.11.56v-.01c-.08.17-.18.32-.31.43-.14.13-.3.22-.48.29h-.01a1.99 1.99 0 0 1-1.28 0h.01a1.47 1.47 0 0 1-.49-.29 1.28 1.28 0 0 1-.31-.43 1.44 1.44 0 0 1 0-1.14 1.3 1.3 0 0 1 .8-.71 1.96 1.96 0 0 1 1.28 0h-.01c.18.07.35.16.49.29a1.3 1.3 0 0 1 .42 1zm-.43 0v-.03c0-.15-.03-.3-.09-.43a.94.94 0 0 0-.56-.54 1.43 1.43 0 0 0-.93 0 1 1 0 0 0-.35.2c-.1.1-.17.21-.22.34a1.3 1.3 0 0 0 0 .92v-.01c.1.26.3.46.57.54.3.1.63.1.92 0a.93.93 0 0 0 .57-.55c.06-.14.09-.29.08-.44zm3.7.47.05.1.05-.1.05-.1 1.06-1.68c.02-.03.04-.04.06-.05h.4v2.72h-.37v-2.09a.68.68 0 0 1 0-.1l-1.07 1.7a.16.16 0 0 1-.06.07.2.2 0 0 1-.1.02h-.05c-.04 0-.07 0-.1-.02a.15.15 0 0 1-.06-.06l-1.1-1.72v2.2h-.35v-2.73h.32l.08.01.06.05 1.08 1.68.05.1zm4-.13v1.02h-.41v-2.73h.92c.18 0 .35.02.52.06.13.04.26.1.36.17a.7.7 0 0 1 .21.26c.05.12.07.24.07.36V30c0 .25-.11.47-.3.6-.1.09-.23.15-.37.19-.14.04-.3.06-.46.06h-.54zm0-.3h.5c.11 0 .22-.01.33-.04a.69.69 0 0 0 .23-.12c.11-.1.19-.24.19-.4v-.04a.45.45 0 0 0-.04-.2v.01a.53.53 0 0 0-.15-.18.89.89 0 0 0-.56-.15h-.5v1.12zm5.58 1.32h-.33c-.03 0-.06 0-.09-.03a.16.16 0 0 1-.05-.06l-.28-.66h-1.42l-.3.66a.16.16 0 0 1-.13.09h-.34l1.25-2.73h.43l1.26 2.73zm-2.05-1.01h1.17l-.5-1.11a1.88 1.88 0 0 1-.09-.26l-.05.14a.88.88 0 0 1-.04.12l-.5 1.1zm3.85-1.7c.02 0 .04.02.06.04l1.82 2.06v-2.12h.37v2.73H27.13a.2.2 0 0 1-.08-.02.22.22 0 0 1-.07-.05l-1.81-2.05v2.12h-.38v-2.73h.22c.03 0 .05 0 .08.02zm5.31 1.63v1.08H30V30.8l-1.15-1.65h.37c.04 0 .07.01.09.03.02.01.04.03.05.06l.72 1.06a2.17 2.17 0 0 1 .13.24l.05-.12.08-.12.7-1.07a.3.3 0 0 1 .06-.06.14.14 0 0 1 .08-.02h.38L30.4 30.8zm-16.9-6.22.56.05c2.8-1.1 5.17-2.88 6.82-5.13s2.48-4.88 2.42-7.55l-3.1-2.68c.64 2.84.34 5.78-.84 8.48s-3.2 5.07-5.85 6.83z"/>
      <path d="m12.4 24.45.09.02c2.82-1.76 4.97-4.2 6.18-7.03s1.4-5.9.57-8.83l-4.4-3.83a16.4 16.4 0 0 1 2.06 10.14 17.28 17.28 0 0 1-4.5 9.53zm14.93-9.34a13.75 13.75 0 0 1-5.18 7.53c-.71.55-1.52 1.06-2.37 1.5l-.09.04c2.13-.55 4.09-1.5 5.72-2.81s2.9-2.92 3.7-4.72l-1.78-1.54z"/>
      <path d="m26.63 14.67-2.54-2.2c-.05 2.51-.87 4.97-2.39 7.12s-3.66 3.9-6.21 5.08c.58 0 1.15-.03 1.71-.09 2.4-.84 4.5-2.2 6.15-3.92s2.77-3.79 3.28-5.99zM12.77 3.17 9.74.53c-2.7.91-5.04 2.51-6.68 4.6S.53 9.65.52 12.18c0 2.79 1.09 5.5 3.07 7.69a14.78 14.78 0 0 0 7.86 4.43c2.77-2.94 4.4-6.58 4.64-10.38s-.92-7.57-3.32-10.76zm20.86 11.1c-.01-3.31-1.53-6.48-4.22-8.82s-6.34-3.66-10.15-3.67h-.03c-1.83 0-3.59.3-5.23.87l.11-.03 18.56 16.12c.6-1.32.96-2.85.96-4.47z"/>
    </symbol>
    <symbol id="group3" viewBox="0 0 65 32">
      <path d="M10.02 9.98c-1.83 0-3.31 1.32-3.31 2.94 0 1.63 1.48 2.95 3.3 2.95 1.83 0 3.31-1.32 3.31-2.94 0-1.63-1.48-2.95-3.3-2.95zm24.41-.94c0-2.25-1.01-4.41-2.8-6S27.4.53 24.85.53c-2.54 0-4.97.9-6.77 2.5s-2.8 3.75-2.8 6v12.44s19.14-1.9 19.14-12.43zM0 25.56c0 1.57.7 3.08 1.96 4.19s2.94 1.73 4.7 1.73c1.77 0 3.46-.63 4.7-1.73s1.96-2.62 1.97-4.19v-8.65S0 18.23 0 25.56zm6.66 1.55c-.34 0-.68-.09-.97-.26-.28-.16-.5-.4-.64-.69a1.36 1.36 0 0 1-.1-.9c.07-.3.24-.58.48-.8.24-.2.55-.36.88-.42h.01a1.91 1.91 0 0 1 1.02.1l-.01-.01c.32.12.6.32.78.57s.3.56.3.86c0 .2-.05.4-.13.6-.1.2-.22.36-.38.5a1.9 1.9 0 0 1-1.24.46zm13.47-.85h-1.29v1.33h-.67v-3.26h2.12v.55h-1.45v.84h1.29v.54zm3.22-.23c0 .32-.06.6-.17.85s-.28.42-.5.55c-.19.13-.43.2-.69.2h-.02a1.3 1.3 0 0 1-1.2-.74h-.01a1.88 1.88 0 0 1-.18-.81v-.19c0-.32.06-.6.17-.84a1.28 1.28 0 0 1 1.21-.76c.27 0 .51.07.72.2.21.13.38.31.5.56.1.24.17.52.17.84v.14zm-.68-.14c0-.34-.06-.6-.19-.78a.6.6 0 0 0-.5-.27h-.04a.6.6 0 0 0-.5.27c-.12.17-.18.43-.18.77v.15c0 .34.06.6.18.78s.3.27.53.27h.02c.2 0 .39-.1.5-.26.11-.18.18-.44.18-.77v-.16zm2.85.84v-.02c0-.1-.05-.2-.13-.27a1.68 1.68 0 0 0-.49-.21c-.21-.07-.4-.14-.57-.23h.02c-.37-.2-.55-.46-.55-.8 0-.17.05-.33.15-.47.1-.14.24-.24.42-.32a1.62 1.62 0 0 1 1.25 0c.18.1.32.2.42.36.1.16.15.33.15.53h-.67a.43.43 0 0 0-.14-.35.57.57 0 0 0-.4-.13c-.16 0-.29.04-.38.1a.33.33 0 0 0-.13.27v.01c0 .1.05.2.16.27.1.07.26.14.47.2.38.11.65.25.83.42s.26.39.26.64c0 .28-.1.5-.32.66s-.5.24-.86.24c-.25 0-.48-.05-.68-.14a1.1 1.1 0 0 1-.47-.37.96.96 0 0 1-.16-.54v-.02h.67c0 .36.21.54.64.54.16 0 .28-.03.37-.1a.32.32 0 0 0 .14-.25v-.02zm3.57-1.85h-1v2.7h-.66v-2.7h-.98v-.54h2.64v.54zm2.34 1.3h-1.28v.87h1.5v.54h-2.17v-3.25h2.17v.54h-1.5v.77h1.28v.53zm1.82.22h-.53v1.19h-.67v-3.25h1.2c.39 0 .68.08.9.25s.3.42.3.73a1 1 0 0 1-.14.55.98.98 0 0 1-.43.35l.7 1.33v.03h-.72l-.61-1.19zm-.53-.55h.54c.17 0 .3-.04.39-.12.08-.09.14-.2.14-.33v-.03c0-.15-.05-.27-.13-.36s-.22-.13-.4-.13h-.54v.97zm4.05.6v1.14h-.67v-3.26h1.27c.25 0 .46.05.65.14.18.09.32.21.42.38.1.16.15.35.15.56 0 .32-.1.57-.32.75-.22.19-.52.28-.9.28h-.6zm0-.55h.6c.18 0 .32-.04.4-.13.1-.08.15-.2.15-.35v-.03a.53.53 0 0 0-.14-.36.53.53 0 0 0-.4-.15h-.6v1.02zm4.24.28h-1.28v.87h1.5v.54h-2.17v-3.25h2.17v.54h-1.5v.77H41v.53zm3.1-1.3h-.99v2.7h-.67v-2.7h-.98v-.54h2.65v.54zm2.35 1.3h-1.29v.87h1.51v.54H44.5v-3.25h2.18v.54h-1.5v.77h1.28v.53zm1.82.22h-.54v1.19h-.67v-3.25h1.21c.39 0 .68.08.89.25s.31.42.31.73a1 1 0 0 1-.14.55.98.98 0 0 1-.43.35l.7 1.33v.03h-.72l-.61-1.19zm-.54-.55h.54c.17 0 .3-.04.4-.12.08-.09.13-.2.13-.33v-.03a.48.48 0 0 0-.13-.36c-.09-.09-.22-.13-.4-.13h-.54v.97zm3.94.88v-.01c0-.11-.05-.21-.13-.28a1.68 1.68 0 0 0-.49-.21c-.21-.07-.4-.14-.57-.23h.02c-.37-.2-.55-.46-.55-.8a.8.8 0 0 1 .14-.47c.1-.14.25-.24.43-.32a1.62 1.62 0 0 1 1.25 0c.18.1.32.2.42.36.1.16.15.33.15.53h-.67a.43.43 0 0 0-.14-.35.57.57 0 0 0-.4-.13c-.16 0-.29.04-.38.1a.33.33 0 0 0-.13.27v.01c0 .1.05.2.16.27s.26.13.47.2c.38.11.65.25.83.42s.26.38.26.64c0 .28-.1.5-.32.66s-.5.24-.86.24c-.25 0-.48-.05-.68-.14a1.1 1.1 0 0 1-.47-.37.96.96 0 0 1-.16-.54v-.02h.67c0 .36.21.54.64.54.16 0 .28-.03.37-.1a.32.32 0 0 0 .14-.26z"/>
    </symbol>
    <symbol id="group4" viewBox="0 0 43 32">
      <path d="M3.24 26.37a.98.98 0 0 1 .25.72c0 .15-.03.29-.1.41h.01c-.07.15-.17.28-.3.38a1.78 1.78 0 0 1-1.13.3H0v-4.21h2.05c.36 0 .69.1.97.28H3c.13.1.23.22.29.35.06.14.1.29.09.44a.92.92 0 0 1-.23.64c-.15.17-.36.29-.59.33.26.05.5.17.67.36zm-2.32-.63h.83c.19 0 .37-.04.52-.14.06-.05.11-.12.14-.19a.46.46 0 0 0 .04-.19v-.07a.47.47 0 0 0-.04-.2v.01a.51.51 0 0 0-.14-.19.84.84 0 0 0-.54-.14H.92v1.1zm1.44 1.61a.53.53 0 0 0 .15-.19.47.47 0 0 0 .04-.2v-.07a.49.49 0 0 0-.05-.2.53.53 0 0 0-.15-.2.9.9 0 0 0-.57-.15H.93v1.16h.88c.2.01.4-.04.56-.15zm4.84.83-1.08-1.64h-.4v1.64h-.93v-4.21h1.88c.41 0 .8.13 1.1.36a1.3 1.3 0 0 1 .41.94c0 .3-.1.59-.29.8-.21.23-.5.38-.82.43h-.01L8.2 28.2H7.2zM5.7 25.96h.76c.53 0 .8-.2.8-.63v-.04a.63.63 0 0 0-.2-.44.86.86 0 0 0-.6-.17h-.76v1.28zm6.55 1.38h-1.84l-.33.84h-.97l1.7-4.16h1.04l1.7 4.17h-.98l-.32-.85zm-.24-.64-.68-1.78-.68 1.78h1.35zm6.58 1.48h-.92l-2.06-2.86v2.86h-.92v-4.21h.92l2.06 2.88v-2.88h.92v4.21zm5.25-1c-.19.31-.48.57-.83.74-.36.17-.78.27-1.22.27h-1.71v-4.22h1.71c.44 0 .86.1 1.24.27l-.02-.01c.35.16.64.42.83.73a2.29 2.29 0 0 1 0 2.22zm-1.05-.1a1.47 1.47 0 0 0 0-2.01 1.68 1.68 0 0 0-1.16-.36h-.63v2.72h.74c.4 0 .77-.13 1.05-.36zM12.84.52s11.87 4.1 11.62 10.04v10.05s-11.87-4.1-11.62-10.04V.51zm22.2 17.74a17.22 17.22 0 0 1 7.54-2.55v-3.14a15.26 15.26 0 0 0-7.54 5.69z"/>
      <path d="M33.69 19.2c1.83-3.38 5.02-5.99 8.9-7.29V2.85S25.66 8.7 26.02 17.15v14.3s.75-.26 1.94-.75c0-.45 0-.91.05-1.38a14.48 14.48 0 0 1 5.67-10.11z"/>
      <path d="M32.08 24.52c.1-1 .29-1.97.6-2.93a13.22 13.22 0 0 0-3.59 8.64 47.1 47.1 0 0 0 3.53-1.7l-.28.13c-.3-1.36-.38-2.76-.26-4.14zm.67.05a12.6 12.6 0 0 0 .23 3.84l-.02-.09c4.62-2.53 9.81-6.44 9.61-11.17v-.4a15.8 15.8 0 0 0-8.79 3.75 12.8 12.8 0 0 0-1.02 4.02v.05z"/>
    </symbol>
    <symbol id="group5" viewBox="0 0 67 32">
      <path d="M33.72 15.22a2.08 2.08 0 0 1-.43-1.42v-2.04c0-.63.15-1.1.43-1.43.29-.33.78-.5 1.47-.5.65 0 1.12.15 1.39.42.3.36.44.8.41 1.23v.48h-1.17v-.49c0-.16 0-.32-.03-.47a.46.46 0 0 0-.17-.29.67.67 0 0 0-.37-.11h-.1a.71.71 0 0 0-.4.12.55.55 0 0 0-.19.3v.01c-.03.14-.04.3-.04.47V14.03c-.02.24.03.48.14.7.07.07.14.13.23.16a.63.63 0 0 0 .31.04h.05c.14 0 .26-.04.36-.11a.5.5 0 0 0 .18-.3c.02-.17.04-.34.03-.5v-.5H37V14.1c0 .44-.15.85-.4 1.17-.27.3-.73.45-1.4.45s-1.18-.16-1.47-.5zm4.86.02c-.3-.32-.44-.78-.44-1.4V11.7c0-.61.15-1.07.44-1.38s.79-.47 1.48-.47 1.18.16 1.47.47c.3.3.45.77.45 1.38v2.16c0 .6-.15 1.07-.45 1.4s-.79.47-1.47.47-1.18-.16-1.48-.48zm2.02-.51c.11-.2.16-.42.14-.64v-2.71c0-.2-.05-.4-.14-.56a.56.56 0 0 0-.23-.17.62.62 0 0 0-.31-.04.64.64 0 0 0-.31.04c-.1.04-.18.1-.24.17-.1.2-.15.41-.14.63v2.65c-.01.22.03.44.14.64a.8.8 0 0 0 .85.16c.1-.04.17-.1.24-.16v-.01zm2.78-4.83h1.26l.94 3.98.97-3.98h1.22l.12 5.75H47l-.1-4-.93 4h-.72l-.97-4.01-.09 4h-.91l.11-5.74zm5.92 0h1.96c1.13 0 1.69.54 1.69 1.63 0 1.04-.6 1.57-1.78 1.56h-.67v2.56h-1.2V9.9zm1.67 2.46a.93.93 0 0 0 .67-.19c.14-.19.2-.42.17-.65v-.06c0-.16-.02-.32-.06-.47V11a.43.43 0 0 0-.09-.15.5.5 0 0 0-.14-.12c-.15-.06-.31-.1-.48-.1h-.54v1.73h.47zM54.7 9.9H56l1.33 5.74h-1.13l-.26-1.32h-1.16l-.27 1.32h-1.14L54.7 9.9zm1.11 3.75-.45-2.4-.45 2.4h.9zm2.6-3.75h.84l1.62 3.28V9.9h1v5.74h-.8l-1.63-3.42v3.42h-1.04V9.9zm5.8 3.55-1.34-3.54H64l.82 2.28.77-2.28h1.1l-1.32 3.55v2.18H64.2v-2.19zm-28.61 4.7v.3h-.99v2.34h-.4v-2.33h-1v-.3h2.39zm3.09 2.64h-.32c-.04 0-.07 0-.09-.03a.14.14 0 0 1-.05-.06l-.29-.62h-1.36l-.29.62c0 .03-.02.06-.04.08a.14.14 0 0 1-.08.02h-.33l1.2-2.63h.43l1.22 2.62zm-2-.98h1.14l-.48-1.07a1.76 1.76 0 0 1-.1-.23v-.02l-.04.14-.04.11-.48 1.07zm4.08.72H41a1.41 1.41 0 0 0 .37-.08l.16-.06v-.6h-.49a.1.1 0 0 1-.06-.02l-.02-.02v-.22h.93v1c-.14.1-.31.17-.5.21a2.23 2.23 0 0 1-.66.08h-.02c-.2 0-.41-.04-.6-.1h.01a1.5 1.5 0 0 1-.49-.28 1.28 1.28 0 0 1-.3-.4v-.01a1.3 1.3 0 0 1-.11-.53v-.03c0-.2.04-.38.1-.55v.01c.07-.15.18-.3.32-.42.13-.11.3-.2.48-.27a2.36 2.36 0 0 1 1.27 0 1.34 1.34 0 0 1 .45.24l-.11.16a.1.1 0 0 1-.04.03.11.11 0 0 1-.06.02l-.07-.02a1.6 1.6 0 0 1-.13-.07 1.52 1.52 0 0 0-.38-.13 1.75 1.75 0 0 0-.29-.02h-.03c-.16 0-.31.03-.46.08h.01c-.13.04-.26.11-.36.2-.09.1-.17.2-.22.32v.01a1.21 1.21 0 0 0 0 .89v-.01a1.04 1.04 0 0 0 1.07.6zm3.85-.04h1.32v.3h-1.72v-2.63h.41v2.33zm2.7.3h-.42v-2.63h.41v2.63zm1.53-2.62a.2.2 0 0 1 .06.05l1.77 1.98v-2.06h.36v2.65h-.22a.2.2 0 0 1-.08-.02.23.23 0 0 1-.06-.05l-1.77-1.98v2.05h-.34v-2.64h.21a.2.2 0 0 1 .07.02zm5.23-.01v.28h-1.46v.87h1.18v.28h-1.18v.9h1.46v.3h-1.89v-2.63h1.89zM10.78 1.89l18.35 4.5v15.75l-18.35-4.5V1.9zM9.61.55V18.4L30.3 23.5V5.62L9.6.55z"/>
      <path d="M20.7 31.78 0 26.7V8.84l20.7 5.07v17.87z"/>
      <path d="m9.95 1.69 18.1 4.44-7.7 6.65-18.1-4.45 7.7-6.64zM9.6.54 0 8.85l20.7 5.07 9.6-8.29L9.6.54zm12.25 30.24 8.44-7.3-8.44-2.06v9.36z"/>
    </symbol>
    <symbol id="instagram" viewBox="0 0 32 32">
      <path d="M31.97 9.4a11.7 11.7 0 0 0-.74-3.87 7.84 7.84 0 0 0-1.85-2.84A7.9 7.9 0 0 0 26.6.86l-.06-.02C25.52.44 24.36.18 22.66.1 20.95.02 20.4 0 16.06 0c-4.35 0-4.89.02-6.6.1-1.7.07-2.87.34-3.88.74a7.85 7.85 0 0 0-2.84 1.85A7.9 7.9 0 0 0 .92 5.46l-.02.06A11.7 11.7 0 0 0 .16 9.4c-.09 1.71-.1 2.26-.1 6.6 0 4.35.01 4.9.09 6.6.07 1.7.35 2.87.74 3.88a7.91 7.91 0 0 0 1.85 2.84c.8.81 1.77 1.44 2.84 1.84 1.01.4 2.18.67 3.88.75 1.7.07 2.25.09 6.6.09 4.34 0 4.88-.02 6.59-.1a11.7 11.7 0 0 0 3.88-.74 8.24 8.24 0 0 0 4.66-4.63l.02-.05c.4-1.02.67-2.18.75-3.88.07-1.7.09-2.25.09-6.6s0-4.88-.08-6.6zm-2.88 13.07a8.86 8.86 0 0 1-.55 2.97 5.34 5.34 0 0 1-3 3.03l-.04.01c-.56.22-1.41.48-2.97.55-1.69.07-2.2.1-6.46.1-4.27 0-4.79-.02-6.47-.1a8.78 8.78 0 0 1-2.97-.55 4.95 4.95 0 0 1-1.83-1.2 4.98 4.98 0 0 1-1.19-1.8l-.01-.03a8.84 8.84 0 0 1-.55-2.97c-.07-1.69-.1-2.2-.1-6.46 0-4.27.03-4.79.1-6.47.07-1.56.33-2.4.55-2.97a4.9 4.9 0 0 1 1.2-1.84c.5-.51 1.12-.92 1.8-1.18l.04-.01A8.8 8.8 0 0 1 9.61 3c1.69-.07 2.2-.1 6.46-.1 4.28 0 4.78.03 6.47.1 1.56.07 2.4.33 2.97.55.69.26 1.32.66 1.83 1.2.53.51.94 1.14 1.2 1.83.22.56.48 1.41.55 2.97.07 1.69.1 2.2.1 6.47 0 4.26-.03 4.76-.1 6.45z"/>
      <path d="M16.06 7.78a8.22 8.22 0 1 0 0 16.44 8.22 8.22 0 0 0 0-16.44zm0 13.55a5.33 5.33 0 0 1 0-10.66 5.33 5.33 0 1 1 0 10.67zM26.52 7.46a1.92 1.92 0 0 1-3.84 0 1.92 1.92 0 0 1 3.84 0z"/>
    </symbol>
    <symbol id="linkedin" viewBox="0 0 32 32">
      <path d="M32 32V20.26c0-5.74-1.24-10.16-7.95-10.16-3.22 0-5.39 1.77-6.27 3.45h-.1v-2.92h-6.36V32h6.62V21.42c0-2.79.53-5.48 3.98-5.48 3.4 0 3.45 3.18 3.45 5.66V32H32zM.52 10.63h6.63V32H.53V10.63zM3.84 0A3.84 3.84 0 0 0 0 3.84a3.88 3.88 0 0 0 3.84 3.88c2.12 0 3.85-1.76 3.85-3.88S5.97 0 3.84 0z"/>
    </symbol>
    <symbol id="twitter" viewBox="0 0 32 32">
      <path d="M32 6.08c-1.1.5-2.38.86-3.71 1.03h-.07a6.56 6.56 0 0 0 2.87-3.58l.01-.04c-1.2.72-2.59 1.27-4.07 1.57l-.09.02A6.54 6.54 0 0 0 15.6 9.55c0 .52.04 1.02.15 1.5A18.57 18.57 0 0 1 2.23 4.2c-.56.95-.9 2.09-.9 3.3v.01a6.57 6.57 0 0 0 2.91 5.45 6.45 6.45 0 0 1-3-.82l.04.01v.08a6.6 6.6 0 0 0 5.21 6.44h.05a6.4 6.4 0 0 1-1.66.22H4.8c-.41 0-.84-.02-1.23-.11a6.62 6.62 0 0 0 6.13 4.57 13.1 13.1 0 0 1-8.13 2.8H1.51c-.53 0-1.06-.04-1.57-.1H0A18.3 18.3 0 0 0 10 29h.07c12.07 0 18.67-10 18.67-18.67 0-.29-.01-.57-.03-.85a13.2 13.2 0 0 0 3.26-3.35l.03-.05z"/>
    </symbol>
  </defs>
</svg>
